# xmcd
#
# Track frame offsets:
#	183
#	15058
#	27908
#	40445
#	55883
#	69283
#	81470
#	97108
#	111633
#	128120
#	141658
#	157408
#	173083
#	184333
#
# Disc length: 2607 seconds
#
# Revision: 1
# Processed by: cddbd v1.5.1PL0 Copyright (c) Steve Scherf et al.
# Submitted via: audiograbber 1.83.01
#
DISCID=cd0a2d0e
DTITLE=Lännenmiehet - Viimeiseen junaan
DYEAR=1990
DGENRE=Country
TTITLE0=Lesti-Eelis
TTITLE1=Matkan päälle
TTITLE2=En voi tapaani muuttaa
TTITLE3=Olen menettänyt sinut
TTITLE4=Kiusaat mua
TTITLE5=Vankilassa
TTITLE6=Soittaa vielä voin
TTITLE7=Viimeiseen junaan
TTITLE8=Yön kulkija
TTITLE9=Lähde minun mukaan
TTITLE10=Heinäkuun yöt
TTITLE11=Niin hyvä oot
TTITLE12=Pikkusisko
TTITLE13=Rakkauden yö
EXTD=
EXTT0=
EXTT1=
EXTT2=
EXTT3=
EXTT4=
EXTT5=
EXTT6=
EXTT7=
EXTT8=
EXTT9=
EXTT10=
EXTT11=
EXTT12=
EXTT13=
PLAYORDER=
